HIERARCHY
ROOT Hips
{
 OFFSET 0.000000 0.000000 0.000000
 CHANNELS 6 Xposition Yposition Zposition Yrotation Xrotation Zrotation
 JOINT Chest
 {
  OFFSET 0.000000 9.588913 -0.003946
  CHANNELS 3 Yrotation Xrotation Zrotation
  JOINT Chest2
  {
   OFFSET 0.000000 9.541882 0.008053
   CHANNELS 3 Yrotation Xrotation Zrotation
   JOINT Chest3
   {
    OFFSET 0.000000 9.501360 0.000000
    CHANNELS 3 Yrotation Xrotation Zrotation
    JOINT Chest4
    {
     OFFSET 0.000000 9.491660 0.000000
     CHANNELS 3 Yrotation Xrotation Zrotation
     JOINT Neck
     {
      OFFSET 0.000000 14.331917 0.000000
      CHANNELS 3 Yrotation Xrotation Zrotation
      JOINT Head
      {
       OFFSET 0.000000 8.884799 0.017034
       CHANNELS 3 Yrotation Xrotation Zrotation
       End Site
       {
        OFFSET 0.000000 16.896195 0.008993
       }
      }
     }
     JOINT RightCollar
     {
      OFFSET -2.923010 9.499495 0.000000
      CHANNELS 3 Yrotation Xrotation Zrotation
      JOINT RightShoulder
      {
       OFFSET -13.795216 0.000000 0.000000
       CHANNELS 3 Yrotation Xrotation Zrotation
       JOINT RightElbow
       {
        OFFSET -30.272209 0.000000 0.000000
        CHANNELS 3 Yrotation Xrotation Zrotation
        JOINT RightWrist
        {
         OFFSET -24.478199 0.000000 0.000000
         CHANNELS 3 Yrotation Xrotation Zrotation
         End Site
         {
          OFFSET -18.090752 0.000000 0.000000
         }
        }
       }
      }
     }
     JOINT LeftCollar
     {
      OFFSET 2.923010 9.499495 0.000000
      CHANNELS 3 Yrotation Xrotation Zrotation
      JOINT LeftShoulder
      {
       OFFSET 13.795216 0.000000 0.000000
       CHANNELS 3 Yrotation Xrotation Zrotation
       JOINT LeftElbow
       {
        OFFSET 30.272209 0.000000 0.000000
        CHANNELS 3 Yrotation Xrotation Zrotation
        JOINT LeftWrist
        {
         OFFSET 24.478199 0.000000 0.000000
         CHANNELS 3 Yrotation Xrotation Zrotation
         End Site
         {
          OFFSET 18.090752 0.000000 0.000000
         }
        }
       }
      }
     }
    }
   }
  }
 }
 JOINT RightHip
 {
  OFFSET -7.826875 0.019532 0.001973
  CHANNELS 3 Yrotation Xrotation Zrotation
  JOINT RightKnee
  {
   OFFSET 0.000000 -40.546152 -0.001885
   CHANNELS 3 Yrotation Xrotation Zrotation
   JOINT RightAnkle
   {
    OFFSET 0.000000 -39.417092 -0.003189
    CHANNELS 3 Yrotation Xrotation Zrotation
    JOINT RightToe
    {
     OFFSET 0.000000 -7.579396 17.243563
     CHANNELS 3 Yrotation Xrotation Zrotation
     End Site
     {
      OFFSET 0.000000 -1.500329 6.694466
     }
    }
   }
  }
 }
 JOINT LeftHip
 {
  OFFSET 7.826875 0.019532 0.001973
  CHANNELS 3 Yrotation Xrotation Zrotation
  JOINT LeftKnee
  {
   OFFSET 0.000000 -40.546152 -0.001885
   CHANNELS 3 Yrotation Xrotation Zrotation
   JOINT LeftAnkle
   {
    OFFSET 0.000000 -39.417092 -0.003189
    CHANNELS 3 Yrotation Xrotation Zrotation
    JOINT LeftToe
    {
     OFFSET 0.000000 -7.579396 17.243563
     CHANNELS 3 Yrotation Xrotation Zrotation
     End Site
     {
      OFFSET 0.000000 -1.500329 6.694466
     }
    }
   }
  }
 }
}
MOTION
Frames: 7
Frame Time: 0.008333
11.628455 89.140552 1.723478 47.353992 -2.129605 0.579364 -0.886078 0.021364 -1.086838 -0.514343 0.024045 -0.598106 -0.642965 0.029217 -0.747664 -0.514343 0.024045 -0.598106 4.991736 27.251254 3.707407 4.663132 4.367152 2.953980 -6.595872 -2.694719 -6.565851 5.965399 14.165194 60.682746 66.593877 23.303535 47.761552 15.983994 2.393655 6.262427 9.793338 -4.302110 8.065084 5.133478 6.771134 -56.151089 -69.902741 21.016294 -67.007350 -4.489513 2.895001 -8.489971 1.274992 4.938588 -0.399484 -2.115030 0.904741 0.316222 2.301613 -4.509675 0.981051 -0.071324 -0.074148 -0.017540 1.618124 3.374769 -0.466249 0.836680 5.385853 -0.062034 -1.788729 -6.525437 0.003379 0.080820 0.075158 0.066672
11.683525 89.145277 1.689071 47.366107 -2.092262 0.561346 -0.877202 0.041262 -1.094947 -0.509019 0.035569 -0.600343 -0.636330 0.043628 -0.750477 -0.509019 0.035569 -0.600343 4.989777 27.227446 3.684553 4.665477 4.336117 2.928670 -6.577476 -2.741253 -6.560928 5.928320 14.042366 60.603482 66.431068 23.347135 47.651719 15.966073 2.378902 6.264377 9.788872 -4.336556 8.049183 5.305386 6.682101 -56.012752 -69.973054 20.824936 -67.018397 -4.024095 2.954063 -8.539447 1.245986 4.910765 -0.428536 -2.115956 0.908258 0.304384 2.310659 -4.510342 1.033570 -0.072372 -0.080956 -0.017411 1.662387 3.548634 -0.457107 0.833892 4.986897 -0.117368 -1.840857 -6.344930 0.053161 0.080998 0.080204 0.069741
11.739669 89.149369 1.653688 47.379071 -2.055453 0.540784 -0.868616 0.060552 -1.102877 -0.503842 0.047073 -0.601905 -0.629878 0.058013 -0.752444 -0.503842 0.047073 -0.601905 4.988007 27.203987 3.662755 4.667808 4.305576 2.904501 -6.558354 -2.786976 -6.558313 5.900949 13.920053 60.539226 66.240285 23.380774 47.526228 15.966616 2.355711 6.254318 9.787517 -4.370930 8.037587 5.474078 6.578126 -55.877681 -70.031787 20.630877 -67.041862 -3.589156 3.006731 -8.574902 1.221956 4.886658 -0.455373 -2.118300 0.905706 0.291643 2.317073 -4.508269 1.086101 -0.073659 -0.087387 -0.015901 1.704506 3.724386 -0.448768 0.839405 4.585054 -0.168353 -1.896765 -6.163146 0.100795 0.081130 0.085218 0.072905
11.797606 89.152900 1.617553 47.393327 -2.023564 0.519353 -0.859113 0.080841 -1.110852 -0.497997 0.059354 -0.603406 -0.622592 0.073373 -0.754336 -0.497997 0.059354 -0.603406 4.984018 27.181216 3.643056 4.667220 4.275871 2.883162 -6.538535 -2.830903 -6.558863 5.876396 13.800103 60.489761 66.025403 23.408544 47.386803 15.981216 2.327088 6.230721 9.783797 -4.404730 8.028599 5.636136 6.464291 -55.742419 -70.088963 20.435655 -67.074347 -3.167987 3.045198 -8.608866 1.199450 4.868906 -0.483085 -2.122590 0.901932 0.280549 2.323659 -4.506402 1.136488 -0.074575 -0.093467 -0.012727 1.743495 3.907953 -0.440537 0.847306 4.177988 -0.218747 -1.955007 -5.978455 0.147634 0.080750 0.089666 0.076067
11.857231 89.155932 1.580344 47.410436 -1.995087 0.498411 -0.850345 0.102632 -1.118742 -0.492307 0.072105 -0.605181 -0.615500 0.089318 -0.756571 -0.492307 0.072105 -0.605181 4.978384 27.158891 3.625842 4.664261 4.246725 2.864948 -6.511594 -2.874768 -6.561241 5.846837 13.679648 60.449505 65.800802 23.440899 47.243836 16.008862 2.299417 6.191579 9.778905 -4.439986 8.018101 5.787281 6.345975 -55.602124 -70.149230 20.239867 -67.110419 -2.747245 3.068848 -8.654074 1.176309 4.854355 -0.513768 -2.128001 0.900333 0.272450 2.328983 -4.506520 1.185485 -0.075154 -0.098902 -0.009430 1.780036 4.097029 -0.432759 0.857411 3.766587 -0.270469 -2.018178 -5.790241 0.195078 0.079845 0.093084 0.078952
11.918046 89.158527 1.541710 47.429347 -1.966595 0.478494 -0.843011 0.125111 -1.126000 -0.487273 0.084747 -0.607314 -0.609230 0.105126 -0.759254 -0.487273 0.084747 -0.607314 4.972436 27.136074 3.609970 4.660645 4.216982 2.848286 -6.480982 -2.920759 -6.564338 5.817077 13.553378 60.413559 65.581604 23.488037 47.107709 16.049585 2.274394 6.141895 9.773247 -4.477050 8.002737 5.926108 6.227308 -55.454558 -70.213736 20.041476 -67.141405 -2.319402 3.085707 -8.719069 1.149296 4.838602 -0.547710 -2.132517 0.901783 0.266276 2.334497 -4.508681 1.235121 -0.075355 -0.103422 -0.007297 1.817639 4.285739 -0.428126 0.872801 3.355135 -0.320842 -2.085700 -5.599540 0.241844 0.079410 0.094939 0.082169
11.979869 89.160762 1.501690 47.452099 -1.937647 0.459960 -0.837045 0.146999 -1.132523 -0.482987 0.097013 -0.610015 -0.603893 0.120462 -0.762645 -0.482987 0.097013 -0.610015 4.965137 27.113347 3.594961 4.655338 4.187318 2.832880 -6.452288 -2.967557 -6.565606 5.789188 13.422415 60.376239 65.377132 23.550782 46.982311 16.097901 2.253920 6.089294 9.760701 -4.513542 7.983125 6.056664 6.113452 -55.300339 -70.281766 19.835890 -67.158199 -1.882264 3.103196 -8.808722 1.115699 4.821838 -0.584849 -2.137728 0.905159 0.259728 2.345480 -4.512672 1.287444 -0.074725 -0.106986 -0.006435 1.854337 4.470060 -0.427285 0.890750 2.950206 -0.368659 -2.156690 -5.408984 0.287608 0.079521 0.094898 0.085233
